<mxfile host="app.diagrams.net" agent="Mozilla/5.0 (Windows NT 10.0; Win64; x64) AppleWebKit/537.36 (KHTML, like Gecko) Chrome/131.0.0.0 Safari/537.36" version="25.0.3">
  <diagram name="Page-1" id="U6WLNRImaSbRVHB_qgwa">
    <mxGraphModel dx="1050" dy="1753" grid="1" gridSize="10" guides="1" tooltips="1" connect="1" arrows="1" fold="1" page="1" pageScale="1" pageWidth="850" pageHeight="1100" math="0" shadow="0">
      <root>
        <mxCell id="0" />
        <mxCell id="1" parent="0" />
        <mxCell id="s7mlmPEdD6L3cYhHa4Ie-9" style="edgeStyle=orthogonalEdgeStyle;rounded=0;orthogonalLoop=1;jettySize=auto;html=1;" edge="1" parent="1" source="s7mlmPEdD6L3cYhHa4Ie-1" target="s7mlmPEdD6L3cYhHa4Ie-2">
          <mxGeometry relative="1" as="geometry" />
        </mxCell>
        <mxCell id="s7mlmPEdD6L3cYhHa4Ie-1" value="Developer Pushes Code" style="rounded=0;whiteSpace=wrap;html=1;" vertex="1" parent="1">
          <mxGeometry x="308.75" y="20" width="170" height="60" as="geometry" />
        </mxCell>
        <mxCell id="s7mlmPEdD6L3cYhHa4Ie-10" style="edgeStyle=orthogonalEdgeStyle;rounded=0;orthogonalLoop=1;jettySize=auto;html=1;entryX=0.5;entryY=0;entryDx=0;entryDy=0;" edge="1" parent="1" source="s7mlmPEdD6L3cYhHa4Ie-2" target="s7mlmPEdD6L3cYhHa4Ie-3">
          <mxGeometry relative="1" as="geometry" />
        </mxCell>
        <mxCell id="s7mlmPEdD6L3cYhHa4Ie-2" value="AWS CodePipeline" style="rounded=0;whiteSpace=wrap;html=1;" vertex="1" parent="1">
          <mxGeometry x="305" y="130" width="177.5" height="60" as="geometry" />
        </mxCell>
        <mxCell id="s7mlmPEdD6L3cYhHa4Ie-11" style="edgeStyle=orthogonalEdgeStyle;rounded=0;orthogonalLoop=1;jettySize=auto;html=1;entryX=0.5;entryY=0;entryDx=0;entryDy=0;" edge="1" parent="1" source="s7mlmPEdD6L3cYhHa4Ie-3" target="s7mlmPEdD6L3cYhHa4Ie-4">
          <mxGeometry relative="1" as="geometry" />
        </mxCell>
        <mxCell id="s7mlmPEdD6L3cYhHa4Ie-3" value="AWS CodeBuild" style="rounded=0;whiteSpace=wrap;html=1;" vertex="1" parent="1">
          <mxGeometry x="303.75" y="250" width="180" height="60" as="geometry" />
        </mxCell>
        <mxCell id="s7mlmPEdD6L3cYhHa4Ie-12" value="" style="edgeStyle=orthogonalEdgeStyle;rounded=0;orthogonalLoop=1;jettySize=auto;html=1;" edge="1" parent="1" source="s7mlmPEdD6L3cYhHa4Ie-4" target="s7mlmPEdD6L3cYhHa4Ie-5">
          <mxGeometry relative="1" as="geometry" />
        </mxCell>
        <mxCell id="s7mlmPEdD6L3cYhHa4Ie-4" value="Elastic Container Registry (ECR)" style="rounded=0;whiteSpace=wrap;html=1;" vertex="1" parent="1">
          <mxGeometry x="301.25" y="370" width="185" height="60" as="geometry" />
        </mxCell>
        <mxCell id="s7mlmPEdD6L3cYhHa4Ie-5" value="Elastic Kubernetes Service(EKS)" style="rounded=0;whiteSpace=wrap;html=1;" vertex="1" parent="1">
          <mxGeometry x="298.13" y="480" width="191.25" height="60" as="geometry" />
        </mxCell>
        <mxCell id="s7mlmPEdD6L3cYhHa4Ie-13" value="&lt;b&gt;&lt;font style=&quot;font-size: 18px;&quot;&gt;CICD app deployment pipeline&lt;/font&gt;&lt;/b&gt;" style="text;html=1;align=center;verticalAlign=middle;whiteSpace=wrap;rounded=0;" vertex="1" parent="1">
          <mxGeometry x="240" y="-40" width="360.62" height="30" as="geometry" />
        </mxCell>
      </root>
    </mxGraphModel>
  </diagram>
</mxfile>
